# xmcd
#
# Track frame offsets:
#	150
#	17223
#	30904
#	44762
#	58136
#	75089
#	88624
#	104621
#	119059
#	135223
#	149107
#	161387
#	173232
#	189655
#
# Disc length: 2693 seconds
#
# Revision: 2
# Processed by: cddbd v1.4PL0 Copyright (c) Steve Scherf et al.
# Submitted via: audiograbber 1.80
#
DISCID=bd0a830e
DTITLE=John Williamson - Gunyah
DYEAR=2002
DGENRE=Country
TTITLE0=Sing You The Outback
TTITLE1=Frangipani Bay
TTITLE2=Cape York Peninsula
TTITLE3=Granny's Little Gunyah
TTITLE4=Butter Outa Grass
TTITLE5=A Mighty Big River
TTITLE6=Around Jindabyne
TTITLE7=The Devil's Boots
TTITLE8=Salisbury Street
TTITLE9=You Are My Foundation
TTITLE10=Buried In Her Bedclothes
TTITLE11=The Kiwi And The Emu
TTITLE12=Telephone In My Pocket
TTITLE13=Big Brother, Little Brother
EXTD=YEAR: 2002 ID3G: 2
EXTT0=
EXTT1=
EXTT2=
EXTT3=
EXTT4=
EXTT5=
EXTT6=
EXTT7=
EXTT8=
EXTT9=
EXTT10=
EXTT11=
EXTT12=
EXTT13=
PLAYORDER=
